<svg width="240" height="48" viewBox="0 0 240 48" fill="none" xmlns="http://www.w3.org/2000/svg">
<rect width="240" height="48" fill="#F5F5F6"/>
<g clip-path="url(#clip0_3483_1895)">
<path d="M34.031 28.617L38.314 32.899L36.899 34.314L32.617 30.031C31.0237 31.3082 29.042 32.0029 27 32C22.032 32 18 27.968 18 23C18 18.032 22.032 14 27 14C31.968 14 36 18.032 36 23C36.0029 25.042 35.3082 27.0237 34.031 28.617ZM32.025 27.875C33.2941 26.5699 34.0029 24.8204 34 23C34 19.132 30.867 16 27 16C23.132 16 20 19.132 20 23C20 26.867 23.132 30 27 30C28.8204 30.0029 30.5699 29.2941 31.875 28.025L32.025 27.875Z" fill="#373737"/>
</g>
<path d="M49.4091 30V18.3636H56.3864V19.6136H50.8182V23.5455H55.8636V24.7955H50.8182V30H49.4091ZM59.1179 30V21.2727H60.4588V30H59.1179ZM59.7997 19.8182C59.5384 19.8182 59.313 19.7292 59.1236 19.5511C58.938 19.3731 58.8452 19.1591 58.8452 18.9091C58.8452 18.6591 58.938 18.4451 59.1236 18.267C59.313 18.089 59.5384 18 59.7997 18C60.0611 18 60.2846 18.089 60.4702 18.267C60.6596 18.4451 60.7543 18.6591 60.7543 18.9091C60.7543 19.1591 60.6596 19.3731 60.4702 19.5511C60.2846 19.7292 60.0611 19.8182 59.7997 19.8182ZM64.7557 24.75V30H63.4148V21.2727H64.7102V22.6364H64.8239C65.0284 22.1932 65.339 21.8371 65.7557 21.5682C66.1723 21.2955 66.7102 21.1591 67.3693 21.1591C67.9602 21.1591 68.4773 21.2803 68.9205 21.5227C69.3636 21.7614 69.7083 22.125 69.9545 22.6136C70.2008 23.0985 70.3239 23.7121 70.3239 24.4545V30H68.983V24.5455C68.983 23.8598 68.8049 23.3258 68.4489 22.9432C68.0928 22.5568 67.6042 22.3636 66.983 22.3636C66.5549 22.3636 66.1723 22.4564 65.8352 22.642C65.5019 22.8277 65.2386 23.0985 65.0455 23.4545C64.8523 23.8106 64.7557 24.2424 64.7557 24.75ZM76.5696 30.1818C75.8423 30.1818 75.2003 29.9981 74.6435 29.6307C74.0866 29.2595 73.651 28.7367 73.3366 28.0625C73.0223 27.3845 72.8651 26.5833 72.8651 25.6591C72.8651 24.7424 73.0223 23.947 73.3366 23.2727C73.651 22.5985 74.0885 22.0777 74.6491 21.7102C75.2098 21.3428 75.8575 21.1591 76.5923 21.1591C77.1605 21.1591 77.6094 21.2538 77.9389 21.4432C78.2723 21.6288 78.526 21.8409 78.7003 22.0795C78.8783 22.3144 79.0166 22.5076 79.1151 22.6591H79.2287V18.3636H80.5696V30H79.2741V28.6591H79.1151C79.0166 28.8182 78.8764 29.0189 78.6946 29.2614C78.5128 29.5 78.2533 29.714 77.9162 29.9034C77.5791 30.089 77.1302 30.1818 76.5696 30.1818ZM76.7514 28.9773C77.2893 28.9773 77.7438 28.8371 78.1151 28.5568C78.4863 28.2727 78.7685 27.8807 78.9616 27.3807C79.1548 26.8769 79.2514 26.2955 79.2514 25.6364C79.2514 24.9848 79.1567 24.4148 78.9673 23.9261C78.7779 23.4337 78.4976 23.0511 78.1264 22.7784C77.7552 22.5019 77.2969 22.3636 76.7514 22.3636C76.1832 22.3636 75.7098 22.5095 75.331 22.8011C74.956 23.089 74.6738 23.4811 74.4844 23.9773C74.2988 24.4697 74.206 25.0227 74.206 25.6364C74.206 26.2576 74.3007 26.822 74.4901 27.3295C74.6832 27.8333 74.9673 28.2348 75.3423 28.5341C75.7211 28.8295 76.1908 28.9773 76.7514 28.9773ZM92.5071 21.2727V22.4091H87.9844V21.2727H92.5071ZM89.3026 19.1818H90.6435V27.5C90.6435 27.8788 90.6984 28.1629 90.8082 28.3523C90.9219 28.5379 91.0658 28.6629 91.2401 28.7273C91.4181 28.7879 91.6056 28.8182 91.8026 28.8182C91.9503 28.8182 92.0715 28.8106 92.1662 28.7955C92.2609 28.7765 92.3366 28.7614 92.3935 28.75L92.6662 29.9545C92.5753 29.9886 92.4484 30.0227 92.2855 30.0568C92.1226 30.0947 91.9162 30.1136 91.6662 30.1136C91.2874 30.1136 90.9162 30.0322 90.5526 29.8693C90.1927 29.7064 89.8935 29.4583 89.6548 29.125C89.42 28.7917 89.3026 28.3712 89.3026 27.8636V19.1818ZM96.5526 24.75V30H95.2116V18.3636H96.5526V22.6364H96.6662C96.8707 22.1856 97.1776 21.8277 97.5866 21.5625C97.9995 21.2936 98.5488 21.1591 99.2344 21.1591C99.8291 21.1591 100.35 21.2784 100.797 21.517C101.244 21.7519 101.59 22.1136 101.837 22.6023C102.087 23.0871 102.212 23.7045 102.212 24.4545V30H100.871V24.5455C100.871 23.8523 100.691 23.3163 100.331 22.9375C99.9749 22.5549 99.4806 22.3636 98.848 22.3636C98.4086 22.3636 98.0147 22.4564 97.6662 22.642C97.3215 22.8277 97.0488 23.0985 96.848 23.4545C96.651 23.8106 96.5526 24.2424 96.5526 24.75ZM107.733 30.2045C107.18 30.2045 106.678 30.1004 106.227 29.892C105.777 29.6799 105.419 29.375 105.153 28.9773C104.888 28.5758 104.756 28.0909 104.756 27.5227C104.756 27.0227 104.854 26.6174 105.051 26.3068C105.248 25.9924 105.511 25.7462 105.841 25.5682C106.17 25.3902 106.534 25.2576 106.932 25.1705C107.333 25.0795 107.737 25.0076 108.142 24.9545C108.672 24.8864 109.102 24.8352 109.432 24.8011C109.765 24.7633 110.008 24.7008 110.159 24.6136C110.314 24.5265 110.392 24.375 110.392 24.1591V24.1136C110.392 23.553 110.239 23.1174 109.932 22.8068C109.629 22.4962 109.169 22.3409 108.551 22.3409C107.911 22.3409 107.409 22.4811 107.045 22.7614C106.682 23.0417 106.426 23.3409 106.278 23.6591L105.006 23.2045C105.233 22.6742 105.536 22.2614 105.915 21.9659C106.297 21.6667 106.714 21.4583 107.165 21.3409C107.619 21.2197 108.066 21.1591 108.506 21.1591C108.786 21.1591 109.108 21.1932 109.472 21.2614C109.839 21.3258 110.193 21.4602 110.534 21.6648C110.879 21.8693 111.165 22.178 111.392 22.5909C111.619 23.0038 111.733 23.5568 111.733 24.25V30H110.392V28.8182H110.324C110.233 29.0076 110.081 29.2102 109.869 29.4261C109.657 29.642 109.375 29.8258 109.023 29.9773C108.67 30.1288 108.241 30.2045 107.733 30.2045ZM107.938 29C108.468 29 108.915 28.8958 109.278 28.6875C109.646 28.4792 109.922 28.2102 110.108 27.8807C110.297 27.5511 110.392 27.2045 110.392 26.8409V25.6136C110.335 25.6818 110.21 25.7443 110.017 25.8011C109.828 25.8542 109.608 25.9015 109.358 25.9432C109.112 25.9811 108.871 26.0152 108.636 26.0455C108.405 26.072 108.218 26.0947 108.074 26.1136C107.725 26.1591 107.4 26.233 107.097 26.3352C106.797 26.4337 106.555 26.5833 106.369 26.7841C106.188 26.9811 106.097 27.25 106.097 27.5909C106.097 28.0568 106.269 28.4091 106.614 28.6477C106.962 28.8826 107.403 29 107.938 29ZM118.476 21.2727V22.4091H113.953V21.2727H118.476ZM115.271 19.1818H116.612V27.5C116.612 27.8788 116.667 28.1629 116.777 28.3523C116.891 28.5379 117.035 28.6629 117.209 28.7273C117.387 28.7879 117.574 28.8182 117.771 28.8182C117.919 28.8182 118.04 28.8106 118.135 28.7955C118.23 28.7765 118.305 28.7614 118.362 28.75L118.635 29.9545C118.544 29.9886 118.417 30.0227 118.254 30.0568C118.091 30.0947 117.885 30.1136 117.635 30.1136C117.256 30.1136 116.885 30.0322 116.521 29.8693C116.161 29.7064 115.862 29.4583 115.624 29.125C115.389 28.7917 115.271 28.3712 115.271 27.8636V19.1818ZM125.993 21.2727H127.334V30.6364C127.334 31.1742 127.241 31.6402 127.055 32.0341C126.874 32.428 126.597 32.733 126.226 32.9489C125.858 33.1648 125.394 33.2727 124.834 33.2727C124.788 33.2727 124.743 33.2727 124.697 33.2727C124.652 33.2727 124.607 33.2727 124.561 33.2727V32.0227C124.607 32.0227 124.648 32.0227 124.686 32.0227C124.724 32.0227 124.766 32.0227 124.811 32.0227C125.22 32.0227 125.519 31.9015 125.709 31.6591C125.898 31.4205 125.993 31.0795 125.993 30.6364V21.2727ZM126.652 19.8182C126.391 19.8182 126.165 19.7292 125.976 19.5511C125.79 19.3731 125.697 19.1591 125.697 18.9091C125.697 18.6591 125.79 18.4451 125.976 18.267C126.165 18.089 126.391 18 126.652 18C126.913 18 127.137 18.089 127.322 18.267C127.512 18.4451 127.607 18.6591 127.607 18.9091C127.607 19.1591 127.512 19.3731 127.322 19.5511C127.137 19.7292 126.913 19.8182 126.652 19.8182ZM133.835 30.1818C133.047 30.1818 132.356 29.9943 131.761 29.6193C131.17 29.2443 130.708 28.7197 130.375 28.0455C130.045 27.3712 129.881 26.5833 129.881 25.6818C129.881 24.7727 130.045 23.9792 130.375 23.3011C130.708 22.6231 131.17 22.0966 131.761 21.7216C132.356 21.3466 133.047 21.1591 133.835 21.1591C134.623 21.1591 135.313 21.3466 135.903 21.7216C136.498 22.0966 136.96 22.6231 137.29 23.3011C137.623 23.9792 137.79 24.7727 137.79 25.6818C137.79 26.5833 137.623 27.3712 137.29 28.0455C136.96 28.7197 136.498 29.2443 135.903 29.6193C135.313 29.9943 134.623 30.1818 133.835 30.1818ZM133.835 28.9773C134.434 28.9773 134.926 28.8239 135.312 28.517C135.699 28.2102 135.985 27.8068 136.17 27.3068C136.356 26.8068 136.449 26.2652 136.449 25.6818C136.449 25.0985 136.356 24.5549 136.17 24.0511C135.985 23.5473 135.699 23.1402 135.312 22.8295C134.926 22.5189 134.434 22.3636 133.835 22.3636C133.237 22.3636 132.744 22.5189 132.358 22.8295C131.972 23.1402 131.686 23.5473 131.5 24.0511C131.314 24.5549 131.222 25.0985 131.222 25.6818C131.222 26.2652 131.314 26.8068 131.5 27.3068C131.686 27.8068 131.972 28.2102 132.358 28.517C132.744 28.8239 133.237 28.9773 133.835 28.9773ZM140.518 30V18.3636H141.859V22.6591H141.973C142.071 22.5076 142.208 22.3144 142.382 22.0795C142.56 21.8409 142.814 21.6288 143.143 21.4432C143.477 21.2538 143.928 21.1591 144.496 21.1591C145.231 21.1591 145.878 21.3428 146.439 21.7102C147 22.0777 147.437 22.5985 147.751 23.2727C148.066 23.947 148.223 24.7424 148.223 25.6591C148.223 26.5833 148.066 27.3845 147.751 28.0625C147.437 28.7367 147.001 29.2595 146.445 29.6307C145.888 29.9981 145.246 30.1818 144.518 30.1818C143.958 30.1818 143.509 30.089 143.172 29.9034C142.835 29.714 142.575 29.5 142.393 29.2614C142.212 29.0189 142.071 28.8182 141.973 28.6591H141.814V30H140.518ZM141.837 25.6364C141.837 26.2955 141.933 26.8769 142.126 27.3807C142.32 27.8807 142.602 28.2727 142.973 28.5568C143.344 28.8371 143.799 28.9773 144.337 28.9773C144.897 28.9773 145.365 28.8295 145.74 28.5341C146.119 28.2348 146.403 27.8333 146.592 27.3295C146.786 26.822 146.882 26.2576 146.882 25.6364C146.882 25.0227 146.787 24.4697 146.598 23.9773C146.412 23.4811 146.13 23.089 145.751 22.8011C145.376 22.5095 144.905 22.3636 144.337 22.3636C143.791 22.3636 143.333 22.5019 142.962 22.7784C142.59 23.0511 142.31 23.4337 142.121 23.9261C141.931 24.4148 141.837 24.9848 141.837 25.6364Z" fill="#373737"/>
<defs>
<clipPath id="clip0_3483_1895">
<rect width="24" height="24" fill="white" transform="translate(16 12)"/>
</clipPath>
</defs>
</svg>
